<svg width="277" height="36" viewBox="0 0 277 36" fill="none" xmlns="http://www.w3.org/2000/svg">
<path d="M0.52 27V1.26H28.024V5.94H6.28V13.068H25.216V17.748H6.28V27H0.52ZM38.7874 27.18C35.5714 27.18 33.0634 26.388 31.2634 24.804C29.4634 23.196 28.5634 20.844 28.5634 17.748C28.5634 14.628 29.4634 12.276 31.2634 10.692C33.0634 9.084 35.5714 8.28 38.7874 8.28H47.7874C49.8994 8.28 51.5074 8.784 52.6114 9.792C53.7394 10.776 54.3034 12.192 54.3034 14.04C54.3034 17.808 52.1314 19.692 47.7874 19.692H34.1794C34.6834 21.924 36.2194 23.04 38.7874 23.04H53.3674V27.18H38.7874ZM38.7874 12.42C36.3154 12.42 34.7914 13.464 34.2154 15.552H47.5354C48.0154 15.552 48.3874 15.408 48.6514 15.12C48.9394 14.832 49.0834 14.436 49.0834 13.932C49.0834 12.924 48.5674 12.42 47.5354 12.42H38.7874ZM56.8291 27V1.26H62.0491V27H56.8291ZM65.2848 27V8.46H70.5048V27H65.2848ZM65.2488 5.4V1.332H70.5408V5.4H65.2488ZM73.7406 35.1V8.46H87.0606C90.2766 8.46 92.7846 9.252 94.5846 10.836C96.3846 12.42 97.2846 14.712 97.2846 17.712C97.2846 20.736 96.3846 23.04 94.5846 24.624C92.7846 26.208 90.2766 27 87.0606 27H78.9606V35.1H73.7406ZM87.0606 12.6H78.9606V22.86H87.0606C88.6206 22.86 89.8086 22.44 90.6246 21.6C91.4646 20.736 91.8846 19.44 91.8846 17.712C91.8846 16.008 91.4646 14.736 90.6246 13.896C89.8086 13.032 88.6206 12.6 87.0606 12.6ZM109.314 27.18C106.098 27.18 103.59 26.388 101.79 24.804C99.9897 23.196 99.0897 20.844 99.0897 17.748C99.0897 14.628 99.9897 12.276 101.79 10.692C103.59 9.084 106.098 8.28 109.314 8.28H118.314C120.426 8.28 122.034 8.784 123.138 9.792C124.266 10.776 124.83 12.192 124.83 14.04C124.83 17.808 122.658 19.692 118.314 19.692H104.706C105.21 21.924 106.746 23.04 109.314 23.04H123.894V27.18H109.314ZM109.314 12.42C106.842 12.42 105.318 13.464 104.742 15.552H118.062C118.542 15.552 118.914 15.408 119.178 15.12C119.466 14.832 119.61 14.436 119.61 13.932C119.61 12.924 119.094 12.42 118.062 12.42H109.314ZM139.761 27V1.26H145.521V11.808H163.665V1.26H169.425V27H163.665V16.488H145.521V27H139.761ZM178.132 27C176.188 27 174.7 26.508 173.668 25.524C172.636 24.54 172.12 23.136 172.12 21.312C172.12 19.512 172.636 18.12 173.668 17.136C174.7 16.152 176.188 15.66 178.132 15.66H191.956V14.796C191.956 13.332 191.236 12.6 189.796 12.6H174.532V8.46H191.164C193.348 8.46 194.896 8.964 195.808 9.972C196.72 10.956 197.176 12.348 197.176 14.148V27H178.132ZM179.068 22.86H191.956V19.8H179.068C178.612 19.8 178.252 19.944 177.988 20.232C177.748 20.496 177.628 20.856 177.628 21.312C177.628 21.768 177.748 22.14 177.988 22.428C178.252 22.716 178.612 22.86 179.068 22.86ZM200.43 27V8.46H214.614C216.702 8.46 218.238 8.988 219.222 10.044C220.206 11.076 220.698 12.444 220.698 14.148V18H215.406V14.796C215.406 13.356 214.686 12.636 213.246 12.636H205.722V27H200.43ZM227.775 27C225.831 27 224.343 26.508 223.311 25.524C222.279 24.54 221.763 23.136 221.763 21.312C221.763 19.512 222.279 18.12 223.311 17.136C224.343 16.152 225.831 15.66 227.775 15.66H241.599V14.796C241.599 13.332 240.879 12.6 239.439 12.6H224.175V8.46H240.807C242.991 8.46 244.539 8.964 245.451 9.972C246.363 10.956 246.819 12.348 246.819 14.148V27H227.775ZM228.711 22.86H241.599V19.8H228.711C228.255 19.8 227.895 19.944 227.631 20.232C227.391 20.496 227.271 20.856 227.271 21.312C227.271 21.768 227.391 22.14 227.631 22.428C227.895 22.716 228.255 22.86 228.711 22.86ZM238.791 6.84C238.119 6.84 237.483 6.732 236.883 6.516C236.307 6.276 235.647 5.952 234.903 5.544L233.607 4.824C233.103 4.56 232.707 4.392 232.419 4.32C232.131 4.248 231.915 4.212 231.771 4.212C231.387 4.212 231.003 4.344 230.619 4.608C230.235 4.848 229.887 5.352 229.575 6.12H225.759C226.263 4.632 226.815 3.504 227.415 2.736C228.039 1.944 228.699 1.416 229.395 1.152C230.115 0.863999 230.859 0.719999 231.627 0.719999C232.323 0.719999 232.959 0.839999 233.535 1.08C234.135 1.296 234.795 1.608 235.515 2.016L236.811 2.736C237.315 3 237.711 3.168 237.999 3.24C238.287 3.312 238.503 3.348 238.647 3.348C239.031 3.348 239.415 3.216 239.799 2.952C240.183 2.688 240.531 2.184 240.843 1.44H244.659C244.179 2.928 243.627 4.068 243.003 4.86C242.379 5.628 241.719 6.156 241.023 6.444C240.327 6.708 239.583 6.84 238.791 6.84ZM259.576 27.18C256.36 27.18 253.852 26.388 252.052 24.804C250.252 23.196 249.352 20.844 249.352 17.748C249.352 14.628 250.252 12.276 252.052 10.692C253.852 9.084 256.36 8.28 259.576 8.28H266.236C269.452 8.28 271.96 9.084 273.76 10.692C275.56 12.276 276.46 14.628 276.46 17.748C276.46 20.844 275.56 23.196 273.76 24.804C271.96 26.388 269.452 27.18 266.236 27.18H259.576ZM259.576 23.04H266.236C267.796 23.04 268.984 22.608 269.8 21.744C270.64 20.88 271.06 19.548 271.06 17.748C271.06 15.924 270.64 14.58 269.8 13.716C268.984 12.852 267.796 12.42 266.236 12.42H259.576C258.016 12.42 256.816 12.852 255.976 13.716C255.16 14.58 254.752 15.924 254.752 17.748C254.752 19.548 255.16 20.88 255.976 21.744C256.816 22.608 258.016 23.04 259.576 23.04Z" fill="#3E17DC"/>
<path d="M0.52 27V1.26H28.024V5.94H6.28V13.068H25.216V17.748H6.28V27H0.52ZM38.7874 27.18C35.5714 27.18 33.0634 26.388 31.2634 24.804C29.4634 23.196 28.5634 20.844 28.5634 17.748C28.5634 14.628 29.4634 12.276 31.2634 10.692C33.0634 9.084 35.5714 8.28 38.7874 8.28H47.7874C49.8994 8.28 51.5074 8.784 52.6114 9.792C53.7394 10.776 54.3034 12.192 54.3034 14.04C54.3034 17.808 52.1314 19.692 47.7874 19.692H34.1794C34.6834 21.924 36.2194 23.04 38.7874 23.04H53.3674V27.18H38.7874ZM38.7874 12.42C36.3154 12.42 34.7914 13.464 34.2154 15.552H47.5354C48.0154 15.552 48.3874 15.408 48.6514 15.12C48.9394 14.832 49.0834 14.436 49.0834 13.932C49.0834 12.924 48.5674 12.42 47.5354 12.42H38.7874ZM56.8291 27V1.26H62.0491V27H56.8291ZM65.2848 27V8.46H70.5048V27H65.2848ZM65.2488 5.4V1.332H70.5408V5.4H65.2488ZM73.7406 35.1V8.46H87.0606C90.2766 8.46 92.7846 9.252 94.5846 10.836C96.3846 12.42 97.2846 14.712 97.2846 17.712C97.2846 20.736 96.3846 23.04 94.5846 24.624C92.7846 26.208 90.2766 27 87.0606 27H78.9606V35.1H73.7406ZM87.0606 12.6H78.9606V22.86H87.0606C88.6206 22.86 89.8086 22.44 90.6246 21.6C91.4646 20.736 91.8846 19.44 91.8846 17.712C91.8846 16.008 91.4646 14.736 90.6246 13.896C89.8086 13.032 88.6206 12.6 87.0606 12.6ZM109.314 27.18C106.098 27.18 103.59 26.388 101.79 24.804C99.9897 23.196 99.0897 20.844 99.0897 17.748C99.0897 14.628 99.9897 12.276 101.79 10.692C103.59 9.084 106.098 8.28 109.314 8.28H118.314C120.426 8.28 122.034 8.784 123.138 9.792C124.266 10.776 124.83 12.192 124.83 14.04C124.83 17.808 122.658 19.692 118.314 19.692H104.706C105.21 21.924 106.746 23.04 109.314 23.04H123.894V27.18H109.314ZM109.314 12.42C106.842 12.42 105.318 13.464 104.742 15.552H118.062C118.542 15.552 118.914 15.408 119.178 15.12C119.466 14.832 119.61 14.436 119.61 13.932C119.61 12.924 119.094 12.42 118.062 12.42H109.314ZM139.761 27V1.26H145.521V11.808H163.665V1.26H169.425V27H163.665V16.488H145.521V27H139.761ZM178.132 27C176.188 27 174.7 26.508 173.668 25.524C172.636 24.54 172.12 23.136 172.12 21.312C172.12 19.512 172.636 18.12 173.668 17.136C174.7 16.152 176.188 15.66 178.132 15.66H191.956V14.796C191.956 13.332 191.236 12.6 189.796 12.6H174.532V8.46H191.164C193.348 8.46 194.896 8.964 195.808 9.972C196.72 10.956 197.176 12.348 197.176 14.148V27H178.132ZM179.068 22.86H191.956V19.8H179.068C178.612 19.8 178.252 19.944 177.988 20.232C177.748 20.496 177.628 20.856 177.628 21.312C177.628 21.768 177.748 22.14 177.988 22.428C178.252 22.716 178.612 22.86 179.068 22.86ZM200.43 27V8.46H214.614C216.702 8.46 218.238 8.988 219.222 10.044C220.206 11.076 220.698 12.444 220.698 14.148V18H215.406V14.796C215.406 13.356 214.686 12.636 213.246 12.636H205.722V27H200.43ZM227.775 27C225.831 27 224.343 26.508 223.311 25.524C222.279 24.54 221.763 23.136 221.763 21.312C221.763 19.512 222.279 18.12 223.311 17.136C224.343 16.152 225.831 15.66 227.775 15.66H241.599V14.796C241.599 13.332 240.879 12.6 239.439 12.6H224.175V8.46H240.807C242.991 8.46 244.539 8.964 245.451 9.972C246.363 10.956 246.819 12.348 246.819 14.148V27H227.775ZM228.711 22.86H241.599V19.8H228.711C228.255 19.8 227.895 19.944 227.631 20.232C227.391 20.496 227.271 20.856 227.271 21.312C227.271 21.768 227.391 22.14 227.631 22.428C227.895 22.716 228.255 22.86 228.711 22.86ZM238.791 6.84C238.119 6.84 237.483 6.732 236.883 6.516C236.307 6.276 235.647 5.952 234.903 5.544L233.607 4.824C233.103 4.56 232.707 4.392 232.419 4.32C232.131 4.248 231.915 4.212 231.771 4.212C231.387 4.212 231.003 4.344 230.619 4.608C230.235 4.848 229.887 5.352 229.575 6.12H225.759C226.263 4.632 226.815 3.504 227.415 2.736C228.039 1.944 228.699 1.416 229.395 1.152C230.115 0.863999 230.859 0.719999 231.627 0.719999C232.323 0.719999 232.959 0.839999 233.535 1.08C234.135 1.296 234.795 1.608 235.515 2.016L236.811 2.736C237.315 3 237.711 3.168 237.999 3.24C238.287 3.312 238.503 3.348 238.647 3.348C239.031 3.348 239.415 3.216 239.799 2.952C240.183 2.688 240.531 2.184 240.843 1.44H244.659C244.179 2.928 243.627 4.068 243.003 4.86C242.379 5.628 241.719 6.156 241.023 6.444C240.327 6.708 239.583 6.84 238.791 6.84ZM259.576 27.18C256.36 27.18 253.852 26.388 252.052 24.804C250.252 23.196 249.352 20.844 249.352 17.748C249.352 14.628 250.252 12.276 252.052 10.692C253.852 9.084 256.36 8.28 259.576 8.28H266.236C269.452 8.28 271.96 9.084 273.76 10.692C275.56 12.276 276.46 14.628 276.46 17.748C276.46 20.844 275.56 23.196 273.76 24.804C271.96 26.388 269.452 27.18 266.236 27.18H259.576ZM259.576 23.04H266.236C267.796 23.04 268.984 22.608 269.8 21.744C270.64 20.88 271.06 19.548 271.06 17.748C271.06 15.924 270.64 14.58 269.8 13.716C268.984 12.852 267.796 12.42 266.236 12.42H259.576C258.016 12.42 256.816 12.852 255.976 13.716C255.16 14.58 254.752 15.924 254.752 17.748C254.752 19.548 255.16 20.88 255.976 21.744C256.816 22.608 258.016 23.04 259.576 23.04Z" fill="url(#paint0_diamond_340_8)" fill-opacity="0.49"/>
<defs>
<radialGradient id="paint0_diamond_340_8" cx="0" cy="0" r="1" gradientUnits="userSpaceOnUse" gradientTransform="translate(138 15.5) rotate(90) scale(21.5 140)">
<stop stop-color="#9B99E9"/>
<stop offset="1" stop-color="#010006"/>
</radialGradient>
</defs>
</svg>
