<svg width="138" height="28" viewBox="0 0 138 28" fill="none" xmlns="http://www.w3.org/2000/svg">
<path d="M0.52 27V1.26H6.28V11.808H24.424V1.26H30.184V27H24.424V16.488H6.28V27H0.52ZM38.8912 27C36.9472 27 35.4592 26.508 34.4272 25.524C33.3952 24.54 32.8792 23.136 32.8792 21.312C32.8792 19.512 33.3952 18.12 34.4272 17.136C35.4592 16.152 36.9472 15.66 38.8912 15.66H52.7152V14.796C52.7152 13.332 51.9952 12.6 50.5552 12.6H35.2912V8.46H51.9232C54.1072 8.46 55.6552 8.964 56.5672 9.972C57.4792 10.956 57.9352 12.348 57.9352 14.148V27H38.8912ZM39.8272 22.86H52.7152V19.8H39.8272C39.3712 19.8 39.0112 19.944 38.7472 20.232C38.5072 20.496 38.3872 20.856 38.3872 21.312C38.3872 21.768 38.5072 22.14 38.7472 22.428C39.0112 22.716 39.3712 22.86 39.8272 22.86ZM61.1884 27V8.46H75.3724C77.4604 8.46 78.9964 8.988 79.9804 10.044C80.9644 11.076 81.4564 12.444 81.4564 14.148V18H76.1644V14.796C76.1644 13.356 75.4444 12.636 74.0044 12.636H66.4804V27H61.1884ZM88.5332 27C86.5892 27 85.1012 26.508 84.0692 25.524C83.0372 24.54 82.5212 23.136 82.5212 21.312C82.5212 19.512 83.0372 18.12 84.0692 17.136C85.1012 16.152 86.5892 15.66 88.5332 15.66H102.357V14.796C102.357 13.332 101.637 12.6 100.197 12.6H84.9332V8.46H101.565C103.749 8.46 105.297 8.964 106.209 9.972C107.121 10.956 107.577 12.348 107.577 14.148V27H88.5332ZM89.4692 22.86H102.357V19.8H89.4692C89.0132 19.8 88.6532 19.944 88.3892 20.232C88.1492 20.496 88.0292 20.856 88.0292 21.312C88.0292 21.768 88.1492 22.14 88.3892 22.428C88.6532 22.716 89.0132 22.86 89.4692 22.86ZM99.5492 6.84C98.8772 6.84 98.2412 6.732 97.6412 6.516C97.0652 6.276 96.4052 5.952 95.6612 5.544L94.3652 4.824C93.8612 4.56 93.4652 4.392 93.1772 4.32C92.8892 4.248 92.6732 4.212 92.5292 4.212C92.1452 4.212 91.7612 4.344 91.3772 4.608C90.9932 4.848 90.6452 5.352 90.3332 6.12H86.5172C87.0212 4.632 87.5732 3.504 88.1732 2.736C88.7972 1.944 89.4572 1.416 90.1532 1.152C90.8732 0.863999 91.6172 0.719999 92.3852 0.719999C93.0812 0.719999 93.7172 0.839999 94.2932 1.08C94.8932 1.296 95.5532 1.608 96.2732 2.016L97.5692 2.736C98.0732 3 98.4692 3.168 98.7572 3.24C99.0452 3.312 99.2612 3.348 99.4052 3.348C99.7892 3.348 100.173 3.216 100.557 2.952C100.941 2.688 101.289 2.184 101.601 1.44H105.417C104.937 2.928 104.385 4.068 103.761 4.86C103.137 5.628 102.477 6.156 101.781 6.444C101.085 6.708 100.341 6.84 99.5492 6.84ZM120.334 27.18C117.118 27.18 114.61 26.388 112.81 24.804C111.01 23.196 110.11 20.844 110.11 17.748C110.11 14.628 111.01 12.276 112.81 10.692C114.61 9.084 117.118 8.28 120.334 8.28H126.994C130.21 8.28 132.718 9.084 134.518 10.692C136.318 12.276 137.218 14.628 137.218 17.748C137.218 20.844 136.318 23.196 134.518 24.804C132.718 26.388 130.21 27.18 126.994 27.18H120.334ZM120.334 23.04H126.994C128.554 23.04 129.742 22.608 130.558 21.744C131.398 20.88 131.818 19.548 131.818 17.748C131.818 15.924 131.398 14.58 130.558 13.716C129.742 12.852 128.554 12.42 126.994 12.42H120.334C118.774 12.42 117.574 12.852 116.734 13.716C115.918 14.58 115.51 15.924 115.51 17.748C115.51 19.548 115.918 20.88 116.734 21.744C117.574 22.608 118.774 23.04 120.334 23.04Z" fill="#0F0AE3"/>
<path d="M0.52 27V1.26H6.28V11.808H24.424V1.26H30.184V27H24.424V16.488H6.28V27H0.52ZM38.8912 27C36.9472 27 35.4592 26.508 34.4272 25.524C33.3952 24.54 32.8792 23.136 32.8792 21.312C32.8792 19.512 33.3952 18.12 34.4272 17.136C35.4592 16.152 36.9472 15.66 38.8912 15.66H52.7152V14.796C52.7152 13.332 51.9952 12.6 50.5552 12.6H35.2912V8.46H51.9232C54.1072 8.46 55.6552 8.964 56.5672 9.972C57.4792 10.956 57.9352 12.348 57.9352 14.148V27H38.8912ZM39.8272 22.86H52.7152V19.8H39.8272C39.3712 19.8 39.0112 19.944 38.7472 20.232C38.5072 20.496 38.3872 20.856 38.3872 21.312C38.3872 21.768 38.5072 22.14 38.7472 22.428C39.0112 22.716 39.3712 22.86 39.8272 22.86ZM61.1884 27V8.46H75.3724C77.4604 8.46 78.9964 8.988 79.9804 10.044C80.9644 11.076 81.4564 12.444 81.4564 14.148V18H76.1644V14.796C76.1644 13.356 75.4444 12.636 74.0044 12.636H66.4804V27H61.1884ZM88.5332 27C86.5892 27 85.1012 26.508 84.0692 25.524C83.0372 24.54 82.5212 23.136 82.5212 21.312C82.5212 19.512 83.0372 18.12 84.0692 17.136C85.1012 16.152 86.5892 15.66 88.5332 15.66H102.357V14.796C102.357 13.332 101.637 12.6 100.197 12.6H84.9332V8.46H101.565C103.749 8.46 105.297 8.964 106.209 9.972C107.121 10.956 107.577 12.348 107.577 14.148V27H88.5332ZM89.4692 22.86H102.357V19.8H89.4692C89.0132 19.8 88.6532 19.944 88.3892 20.232C88.1492 20.496 88.0292 20.856 88.0292 21.312C88.0292 21.768 88.1492 22.14 88.3892 22.428C88.6532 22.716 89.0132 22.86 89.4692 22.86ZM99.5492 6.84C98.8772 6.84 98.2412 6.732 97.6412 6.516C97.0652 6.276 96.4052 5.952 95.6612 5.544L94.3652 4.824C93.8612 4.56 93.4652 4.392 93.1772 4.32C92.8892 4.248 92.6732 4.212 92.5292 4.212C92.1452 4.212 91.7612 4.344 91.3772 4.608C90.9932 4.848 90.6452 5.352 90.3332 6.12H86.5172C87.0212 4.632 87.5732 3.504 88.1732 2.736C88.7972 1.944 89.4572 1.416 90.1532 1.152C90.8732 0.863999 91.6172 0.719999 92.3852 0.719999C93.0812 0.719999 93.7172 0.839999 94.2932 1.08C94.8932 1.296 95.5532 1.608 96.2732 2.016L97.5692 2.736C98.0732 3 98.4692 3.168 98.7572 3.24C99.0452 3.312 99.2612 3.348 99.4052 3.348C99.7892 3.348 100.173 3.216 100.557 2.952C100.941 2.688 101.289 2.184 101.601 1.44H105.417C104.937 2.928 104.385 4.068 103.761 4.86C103.137 5.628 102.477 6.156 101.781 6.444C101.085 6.708 100.341 6.84 99.5492 6.84ZM120.334 27.18C117.118 27.18 114.61 26.388 112.81 24.804C111.01 23.196 110.11 20.844 110.11 17.748C110.11 14.628 111.01 12.276 112.81 10.692C114.61 9.084 117.118 8.28 120.334 8.28H126.994C130.21 8.28 132.718 9.084 134.518 10.692C136.318 12.276 137.218 14.628 137.218 17.748C137.218 20.844 136.318 23.196 134.518 24.804C132.718 26.388 130.21 27.18 126.994 27.18H120.334ZM120.334 23.04H126.994C128.554 23.04 129.742 22.608 130.558 21.744C131.398 20.88 131.818 19.548 131.818 17.748C131.818 15.924 131.398 14.58 130.558 13.716C129.742 12.852 128.554 12.42 126.994 12.42H120.334C118.774 12.42 117.574 12.852 116.734 13.716C115.918 14.58 115.51 15.924 115.51 17.748C115.51 19.548 115.918 20.88 116.734 21.744C117.574 22.608 118.774 23.04 120.334 23.04Z" fill="url(#paint0_diamond_354_2)" fill-opacity="0.5"/>
<defs>
<radialGradient id="paint0_diamond_354_2" cx="0" cy="0" r="1" gradientUnits="userSpaceOnUse" gradientTransform="translate(68.5 15.5) rotate(90) scale(21.5 70.5)">
<stop stop-color="white" stop-opacity="0.49"/>
<stop offset="0.0001" stop-color="white"/>
<stop offset="1" stop-color="#9334C0"/>
</radialGradient>
</defs>
</svg>
